<?xml version="1.0" encoding="UTF-8" standalone="no" ?>
<!DOCTYPE svg PUBLIC "-//W3C//DTD SVG 1.1//EN" "http://www.w3.org/Graphics/SVG/1.1/DTD/svg11.dtd">
<svg xmlns="http://www.w3.org/2000/svg" xmlns:xlink="http://www.w3.org/1999/xlink" version="1.1" width="640" height="480" viewBox="0 0 640 480" xml:space="preserve">
<desc>Created with Fabric.js 3.6.3</desc>
<defs>
</defs>
<g transform="matrix(7.3 0 0 7.3 327.36 248.14)"  >
<g style=""   >
		<g transform="matrix(1 0 0 1 -0.33 0)"  >
<path style="stroke: rgb(76,76,255); stroke-width: 1; stroke-dasharray: none; stroke-linecap: round; stroke-dashoffset: 0; stroke-linejoin: round; stroke-miterlimit: 4; fill: none; fill-rule: nonzero; opacity: 1;"  transform=" translate(-143.67, -25)" d="M 159.513 37.633 c 0.5 -0.613 0.049 -1.493 -0.743 -1.506 c -10.106 -0.167 -18.558 0.02 -29.012 0.656 c -0.791 0.048 -1.203 0.948 -0.675 1.539 A 19.957 19.957 0 0 0 144.004 45 c 6.256 0 11.841 -2.87 15.509 -7.367 Z M 126.643 15.058 c -0.391 0.68 0.184 1.471 0.963 1.378 c 11.567 -1.388 20.092 -1.802 32.182 -1.066 c 0.787 0.048 1.316 -0.783 0.88 -1.439 C 157.083 8.548 150.958 5 144.004 5 c -7.428 0 -13.911 4.048 -17.361 10.058 Z" stroke-linecap="round" />
</g>
		<g transform="matrix(1 0 0 1 -0.33 0)"  >
<path style="stroke: rgb(76,76,255); stroke-width: 1; stroke-dasharray: none; stroke-linecap: round; stroke-dashoffset: 0; stroke-linejoin: round; stroke-miterlimit: 4; fill: none; fill-rule: nonzero; opacity: 1;"  transform=" translate(-143.67, -25)" d="M 159.513 37.633 c 0.5 -0.613 0.049 -1.493 -0.743 -1.506 c -10.106 -0.167 -18.558 0.02 -29.012 0.656 c -0.791 0.048 -1.203 0.948 -0.675 1.539 A 19.957 19.957 0 0 0 144.004 45 c 6.256 0 11.841 -2.87 15.509 -7.367 Z M 126.643 15.058 c -0.391 0.68 0.184 1.471 0.963 1.378 c 11.567 -1.388 20.092 -1.802 32.182 -1.066 c 0.787 0.048 1.316 -0.783 0.88 -1.439 C 157.083 8.548 150.958 5 144.004 5 c -7.428 0 -13.911 4.048 -17.361 10.058 Z" stroke-linecap="round" />
</g>
		<g transform="matrix(1 0 0 1 -0.33 0)"  >
<path style="stroke: rgb(76,76,255); stroke-width: 1; stroke-dasharray: none; stroke-linecap: round; stroke-dashoffset: 0; stroke-linejoin: round; stroke-miterlimit: 4; fill: none; fill-rule: nonzero; opacity: 1;"  transform=" translate(-143.67, -25)" d="M 159.513 37.633 c 0.5 -0.613 0.049 -1.493 -0.743 -1.506 c -10.106 -0.167 -18.558 0.02 -29.012 0.656 c -0.791 0.048 -1.203 0.948 -0.675 1.539 A 19.957 19.957 0 0 0 144.004 45 c 6.256 0 11.841 -2.87 15.509 -7.367 Z M 126.643 15.058 c -0.391 0.68 0.184 1.471 0.963 1.378 c 11.567 -1.388 20.092 -1.802 32.182 -1.066 c 0.787 0.048 1.316 -0.783 0.88 -1.439 C 157.083 8.548 150.958 5 144.004 5 c -7.428 0 -13.911 4.048 -17.361 10.058 Z" stroke-linecap="round" />
</g>
		<g transform="matrix(1 0 0 1 -0.33 0)"  >
<path style="stroke: rgb(255,255,255); stroke-width: 0.5; stroke-dasharray: none; stroke-linecap: round; stroke-dashoffset: 0; stroke-linejoin: round; stroke-miterlimit: 4; fill: none; fill-rule: nonzero; opacity: 1;"  transform=" translate(-143.67, -25)" d="M 159.513 37.633 c 0.5 -0.613 0.049 -1.493 -0.743 -1.506 c -10.106 -0.167 -18.558 0.02 -29.012 0.656 c -0.791 0.048 -1.203 0.948 -0.675 1.539 A 19.957 19.957 0 0 0 144.004 45 c 6.256 0 11.841 -2.87 15.509 -7.367 Z M 126.643 15.058 c -0.391 0.68 0.184 1.471 0.963 1.378 c 11.567 -1.388 20.092 -1.802 32.182 -1.066 c 0.787 0.048 1.316 -0.783 0.88 -1.439 C 157.083 8.548 150.958 5 144.004 5 c -7.428 0 -13.911 4.048 -17.361 10.058 Z" stroke-linecap="round" />
</g>
		<g transform="matrix(1 0 0 1 -0.02 3.51)"  >
<path style="stroke: rgb(227,60,213); stroke-width: 1; stroke-dasharray: none; stroke-linecap: round; stroke-dashoffset: 0; stroke-linejoin: round; stroke-miterlimit: 4; fill: none; fill-rule: nonzero; opacity: 1;"  transform=" translate(-143.98, -28.51)" d="M 163.859 27.466 c 0.129 -1.053 -0.687 -1.954 -1.744 -2.04 c -12.88 -1.038 -22.931 -1.2 -36.225 -0.502 c -1.059 0.056 -1.9 0.936 -1.801 1.992 c 0.141 1.498 0.448 2.95 0.902 4.334 c 0.262 0.797 1.041 1.29 1.88 1.262 c 12.512 -0.434 22.189 -0.465 34.325 -0.137 c 0.839 0.022 1.615 -0.477 1.87 -1.277 c 0.373 -1.168 0.641 -2.383 0.793 -3.632 Z" stroke-linecap="round" />
</g>
		<g transform="matrix(1 0 0 1 -0.02 3.51)"  >
<path style="stroke: rgb(227,60,213); stroke-width: 1; stroke-dasharray: none; stroke-linecap: round; stroke-dashoffset: 0; stroke-linejoin: round; stroke-miterlimit: 4; fill: none; fill-rule: nonzero; opacity: 1;"  transform=" translate(-143.98, -28.51)" d="M 163.859 27.466 c 0.129 -1.053 -0.687 -1.954 -1.744 -2.04 c -12.88 -1.038 -22.931 -1.2 -36.225 -0.502 c -1.059 0.056 -1.9 0.936 -1.801 1.992 c 0.141 1.498 0.448 2.95 0.902 4.334 c 0.262 0.797 1.041 1.29 1.88 1.262 c 12.512 -0.434 22.189 -0.465 34.325 -0.137 c 0.839 0.022 1.615 -0.477 1.87 -1.277 c 0.373 -1.168 0.641 -2.383 0.793 -3.632 Z" stroke-linecap="round" />
</g>
		<g transform="matrix(1 0 0 1 -0.02 3.51)"  >
<path style="stroke: rgb(227,60,213); stroke-width: 1; stroke-dasharray: none; stroke-linecap: round; stroke-dashoffset: 0; stroke-linejoin: round; stroke-miterlimit: 4; fill: none; fill-rule: nonzero; opacity: 1;"  transform=" translate(-143.98, -28.51)" d="M 163.859 27.466 c 0.129 -1.053 -0.687 -1.954 -1.744 -2.04 c -12.88 -1.038 -22.931 -1.2 -36.225 -0.502 c -1.059 0.056 -1.9 0.936 -1.801 1.992 c 0.141 1.498 0.448 2.95 0.902 4.334 c 0.262 0.797 1.041 1.29 1.88 1.262 c 12.512 -0.434 22.189 -0.465 34.325 -0.137 c 0.839 0.022 1.615 -0.477 1.87 -1.277 c 0.373 -1.168 0.641 -2.383 0.793 -3.632 Z" stroke-linecap="round" />
</g>
		<g transform="matrix(1 0 0 1 -0.02 3.51)"  >
<path style="stroke: rgb(255,255,255); stroke-width: 0.5; stroke-dasharray: none; stroke-linecap: round; stroke-dashoffset: 0; stroke-linejoin: round; stroke-miterlimit: 4; fill: none; fill-rule: nonzero; opacity: 1;"  transform=" translate(-143.98, -28.51)" d="M 163.859 27.466 c 0.129 -1.053 -0.687 -1.954 -1.744 -2.04 c -12.88 -1.038 -22.931 -1.2 -36.225 -0.502 c -1.059 0.056 -1.9 0.936 -1.801 1.992 c 0.141 1.498 0.448 2.95 0.902 4.334 c 0.262 0.797 1.041 1.29 1.88 1.262 c 12.512 -0.434 22.189 -0.465 34.325 -0.137 c 0.839 0.022 1.615 -0.477 1.87 -1.277 c 0.373 -1.168 0.641 -2.383 0.793 -3.632 Z" stroke-linecap="round" />
</g>
		<g transform="matrix(1 0 0 1 0 -4.5)"  >
<path style="stroke: rgb(0,204,204); stroke-width: 1; stroke-dasharray: none; stroke-linecap: round; stroke-dashoffset: 0; stroke-linejoin: round; stroke-miterlimit: 4; fill: none; fill-rule: nonzero; opacity: 1;"  transform=" translate(-144, -20.5)" d="M 124 20.5 c 2.667 -2 5.333 -2 8 0 s 5.333 2 8 0 s 5.333 -2 8 0 s 5.333 2 8 0 s 5.333 -2 8 0" stroke-linecap="round" />
</g>
		<g transform="matrix(1 0 0 1 0 -4.5)"  >
<path style="stroke: rgb(0,204,204); stroke-width: 1; stroke-dasharray: none; stroke-linecap: round; stroke-dashoffset: 0; stroke-linejoin: round; stroke-miterlimit: 4; fill: none; fill-rule: nonzero; opacity: 1;"  transform=" translate(-144, -20.5)" d="M 124 20.5 c 2.667 -2 5.333 -2 8 0 s 5.333 2 8 0 s 5.333 -2 8 0 s 5.333 2 8 0 s 5.333 -2 8 0" stroke-linecap="round" />
</g>
		<g transform="matrix(1 0 0 1 0 -4.5)"  >
<path style="stroke: rgb(0,204,204); stroke-width: 1; stroke-dasharray: none; stroke-linecap: round; stroke-dashoffset: 0; stroke-linejoin: round; stroke-miterlimit: 4; fill: none; fill-rule: nonzero; opacity: 1;"  transform=" translate(-144, -20.5)" d="M 124 20.5 c 2.667 -2 5.333 -2 8 0 s 5.333 2 8 0 s 5.333 -2 8 0 s 5.333 2 8 0 s 5.333 -2 8 0" stroke-linecap="round" />
</g>
		<g transform="matrix(1 0 0 1 0 -4.5)"  >
<path style="stroke: rgb(255,255,255); stroke-width: 0.5; stroke-dasharray: none; stroke-linecap: round; stroke-dashoffset: 0; stroke-linejoin: round; stroke-miterlimit: 4; fill: none; fill-rule: nonzero; opacity: 1;"  transform=" translate(-144, -20.5)" d="M 124 20.5 c 2.667 -2 5.333 -2 8 0 s 5.333 2 8 0 s 5.333 -2 8 0 s 5.333 2 8 0 s 5.333 -2 8 0" stroke-linecap="round" />
</g>
		<g transform="matrix(0.89 0.46 0.46 -0.89 -6.77 14.98)"  >
<ellipse style="stroke: rgb(76,76,255); stroke-width: 1; stroke-dasharray: none; stroke-linecap: butt; stroke-dashoffset: 0; stroke-linejoin: miter; stroke-miterlimit: 4; fill: none; fill-rule: nonzero; opacity: 1;"  cx="0" cy="0" rx="1" ry="0.75" />
</g>
		<g transform="matrix(0.97 0.26 -0.26 0.97 8.71 -13.65)"  >
<ellipse style="stroke: rgb(76,76,255); stroke-width: 1; stroke-dasharray: none; stroke-linecap: butt; stroke-dashoffset: 0; stroke-linejoin: miter; stroke-miterlimit: 4; fill: none; fill-rule: nonzero; opacity: 1;"  cx="0" cy="0" rx="1.5" ry="1" />
</g>
		<g transform="matrix(0.97 -0.26 -0.26 -0.97 6.16 14.98)"  >
<ellipse style="stroke: rgb(76,76,255); stroke-width: 1; stroke-dasharray: none; stroke-linecap: butt; stroke-dashoffset: 0; stroke-linejoin: miter; stroke-miterlimit: 4; fill: none; fill-rule: nonzero; opacity: 1;"  cx="0" cy="0" rx="1" ry="0.75" />
</g>
		<g transform="matrix(-1 0 0 -1 -1.5 -13)"  >
<ellipse style="stroke: rgb(76,76,255); stroke-width: 1; stroke-dasharray: none; stroke-linecap: butt; stroke-dashoffset: 0; stroke-linejoin: miter; stroke-miterlimit: 4; fill: none; fill-rule: nonzero; opacity: 1;"  cx="0" cy="0" rx="1.5" ry="1" />
</g>
		<g transform="matrix(0.97 0.26 -0.26 0.97 2.71 -16.65)"  >
<ellipse style="stroke: rgb(76,76,255); stroke-width: 1; stroke-dasharray: none; stroke-linecap: butt; stroke-dashoffset: 0; stroke-linejoin: miter; stroke-miterlimit: 4; fill: none; fill-rule: nonzero; opacity: 1;"  cx="0" cy="0" rx="1.5" ry="1" />
</g>
		<g transform="matrix(1 0 0 -1 0 16.75)"  >
<ellipse style="stroke: rgb(76,76,255); stroke-width: 1; stroke-dasharray: none; stroke-linecap: butt; stroke-dashoffset: 0; stroke-linejoin: miter; stroke-miterlimit: 4; fill: none; fill-rule: nonzero; opacity: 1;"  cx="0" cy="0" rx="1" ry="0.75" />
</g>
		<g transform="matrix(0.89 -0.46 0.46 0.89 -8.21 -14.42)"  >
<ellipse style="stroke: rgb(76,76,255); stroke-width: 1; stroke-dasharray: none; stroke-linecap: butt; stroke-dashoffset: 0; stroke-linejoin: miter; stroke-miterlimit: 4; fill: none; fill-rule: nonzero; opacity: 1;"  cx="0" cy="0" rx="1.5" ry="1" />
</g>
		<g transform="matrix(0.89 0.46 0.46 -0.89 -6.77 14.98)"  >
<ellipse style="stroke: rgb(76,76,255); stroke-width: 1; stroke-dasharray: none; stroke-linecap: butt; stroke-dashoffset: 0; stroke-linejoin: miter; stroke-miterlimit: 4; fill: none; fill-rule: nonzero; opacity: 1;"  cx="0" cy="0" rx="1" ry="0.75" />
</g>
		<g transform="matrix(0.97 0.26 -0.26 0.97 8.71 -13.65)"  >
<ellipse style="stroke: rgb(76,76,255); stroke-width: 1; stroke-dasharray: none; stroke-linecap: butt; stroke-dashoffset: 0; stroke-linejoin: miter; stroke-miterlimit: 4; fill: none; fill-rule: nonzero; opacity: 1;"  cx="0" cy="0" rx="1.5" ry="1" />
</g>
		<g transform="matrix(0.97 -0.26 -0.26 -0.97 6.16 14.98)"  >
<ellipse style="stroke: rgb(76,76,255); stroke-width: 1; stroke-dasharray: none; stroke-linecap: butt; stroke-dashoffset: 0; stroke-linejoin: miter; stroke-miterlimit: 4; fill: none; fill-rule: nonzero; opacity: 1;"  cx="0" cy="0" rx="1" ry="0.75" />
</g>
		<g transform="matrix(-1 0 0 -1 -1.5 -13)"  >
<ellipse style="stroke: rgb(76,76,255); stroke-width: 1; stroke-dasharray: none; stroke-linecap: butt; stroke-dashoffset: 0; stroke-linejoin: miter; stroke-miterlimit: 4; fill: none; fill-rule: nonzero; opacity: 1;"  cx="0" cy="0" rx="1.5" ry="1" />
</g>
		<g transform="matrix(0.97 0.26 -0.26 0.97 2.71 -16.65)"  >
<ellipse style="stroke: rgb(76,76,255); stroke-width: 1; stroke-dasharray: none; stroke-linecap: butt; stroke-dashoffset: 0; stroke-linejoin: miter; stroke-miterlimit: 4; fill: none; fill-rule: nonzero; opacity: 1;"  cx="0" cy="0" rx="1.5" ry="1" />
</g>
		<g transform="matrix(1 0 0 -1 0 16.75)"  >
<ellipse style="stroke: rgb(76,76,255); stroke-width: 1; stroke-dasharray: none; stroke-linecap: butt; stroke-dashoffset: 0; stroke-linejoin: miter; stroke-miterlimit: 4; fill: none; fill-rule: nonzero; opacity: 1;"  cx="0" cy="0" rx="1" ry="0.75" />
</g>
		<g transform="matrix(0.89 -0.46 0.46 0.89 -8.21 -14.42)"  >
<ellipse style="stroke: rgb(76,76,255); stroke-width: 1; stroke-dasharray: none; stroke-linecap: butt; stroke-dashoffset: 0; stroke-linejoin: miter; stroke-miterlimit: 4; fill: none; fill-rule: nonzero; opacity: 1;"  cx="0" cy="0" rx="1.5" ry="1" />
</g>
		<g transform="matrix(0.89 0.46 0.46 -0.89 -6.77 14.98)"  >
<ellipse style="stroke: rgb(76,76,255); stroke-width: 1; stroke-dasharray: none; stroke-linecap: butt; stroke-dashoffset: 0; stroke-linejoin: miter; stroke-miterlimit: 4; fill: none; fill-rule: nonzero; opacity: 1;"  cx="0" cy="0" rx="1" ry="0.75" />
</g>
		<g transform="matrix(0.97 0.26 -0.26 0.97 8.71 -13.65)"  >
<ellipse style="stroke: rgb(76,76,255); stroke-width: 1; stroke-dasharray: none; stroke-linecap: butt; stroke-dashoffset: 0; stroke-linejoin: miter; stroke-miterlimit: 4; fill: none; fill-rule: nonzero; opacity: 1;"  cx="0" cy="0" rx="1.5" ry="1" />
</g>
		<g transform="matrix(0.97 -0.26 -0.26 -0.97 6.16 14.98)"  >
<ellipse style="stroke: rgb(76,76,255); stroke-width: 1; stroke-dasharray: none; stroke-linecap: butt; stroke-dashoffset: 0; stroke-linejoin: miter; stroke-miterlimit: 4; fill: none; fill-rule: nonzero; opacity: 1;"  cx="0" cy="0" rx="1" ry="0.75" />
</g>
		<g transform="matrix(-1 0 0 -1 -1.5 -13)"  >
<ellipse style="stroke: rgb(76,76,255); stroke-width: 1; stroke-dasharray: none; stroke-linecap: butt; stroke-dashoffset: 0; stroke-linejoin: miter; stroke-miterlimit: 4; fill: none; fill-rule: nonzero; opacity: 1;"  cx="0" cy="0" rx="1.5" ry="1" />
</g>
		<g transform="matrix(0.97 0.26 -0.26 0.97 2.71 -16.65)"  >
<ellipse style="stroke: rgb(76,76,255); stroke-width: 1; stroke-dasharray: none; stroke-linecap: butt; stroke-dashoffset: 0; stroke-linejoin: miter; stroke-miterlimit: 4; fill: none; fill-rule: nonzero; opacity: 1;"  cx="0" cy="0" rx="1.5" ry="1" />
</g>
		<g transform="matrix(1 0 0 -1 0 16.75)"  >
<ellipse style="stroke: rgb(76,76,255); stroke-width: 1; stroke-dasharray: none; stroke-linecap: butt; stroke-dashoffset: 0; stroke-linejoin: miter; stroke-miterlimit: 4; fill: none; fill-rule: nonzero; opacity: 1;"  cx="0" cy="0" rx="1" ry="0.75" />
</g>
		<g transform="matrix(0.89 -0.46 0.46 0.89 -8.21 -14.42)"  >
<ellipse style="stroke: rgb(76,76,255); stroke-width: 1; stroke-dasharray: none; stroke-linecap: butt; stroke-dashoffset: 0; stroke-linejoin: miter; stroke-miterlimit: 4; fill: none; fill-rule: nonzero; opacity: 1;"  cx="0" cy="0" rx="1.5" ry="1" />
</g>
		<g transform="matrix(0.89 0.46 0.46 -0.89 -6.77 14.98)"  >
<ellipse style="stroke: rgb(255,255,255); stroke-width: 0.5; stroke-dasharray: none; stroke-linecap: butt; stroke-dashoffset: 0; stroke-linejoin: miter; stroke-miterlimit: 4; fill: none; fill-rule: nonzero; opacity: 1;"  cx="0" cy="0" rx="1" ry="0.75" />
</g>
		<g transform="matrix(0.97 0.26 -0.26 0.97 8.71 -13.65)"  >
<ellipse style="stroke: rgb(255,255,255); stroke-width: 0.5; stroke-dasharray: none; stroke-linecap: butt; stroke-dashoffset: 0; stroke-linejoin: miter; stroke-miterlimit: 4; fill: none; fill-rule: nonzero; opacity: 1;"  cx="0" cy="0" rx="1.5" ry="1" />
</g>
		<g transform="matrix(0.97 -0.26 -0.26 -0.97 6.16 14.98)"  >
<ellipse style="stroke: rgb(255,255,255); stroke-width: 0.5; stroke-dasharray: none; stroke-linecap: butt; stroke-dashoffset: 0; stroke-linejoin: miter; stroke-miterlimit: 4; fill: none; fill-rule: nonzero; opacity: 1;"  cx="0" cy="0" rx="1" ry="0.75" />
</g>
		<g transform="matrix(-1 0 0 -1 -1.5 -13)"  >
<ellipse style="stroke: rgb(255,255,255); stroke-width: 0.5; stroke-dasharray: none; stroke-linecap: butt; stroke-dashoffset: 0; stroke-linejoin: miter; stroke-miterlimit: 4; fill: none; fill-rule: nonzero; opacity: 1;"  cx="0" cy="0" rx="1.5" ry="1" />
</g>
		<g transform="matrix(0.97 0.26 -0.26 0.97 2.71 -16.65)"  >
<ellipse style="stroke: rgb(255,255,255); stroke-width: 0.5; stroke-dasharray: none; stroke-linecap: butt; stroke-dashoffset: 0; stroke-linejoin: miter; stroke-miterlimit: 4; fill: none; fill-rule: nonzero; opacity: 1;"  cx="0" cy="0" rx="1.5" ry="1" />
</g>
		<g transform="matrix(1 0 0 -1 0 16.75)"  >
<ellipse style="stroke: rgb(255,255,255); stroke-width: 0.5; stroke-dasharray: none; stroke-linecap: butt; stroke-dashoffset: 0; stroke-linejoin: miter; stroke-miterlimit: 4; fill: none; fill-rule: nonzero; opacity: 1;"  cx="0" cy="0" rx="1" ry="0.75" />
</g>
		<g transform="matrix(0.89 -0.46 0.46 0.89 -8.21 -14.42)"  >
<ellipse style="stroke: rgb(255,255,255); stroke-width: 0.5; stroke-dasharray: none; stroke-linecap: butt; stroke-dashoffset: 0; stroke-linejoin: miter; stroke-miterlimit: 4; fill: none; fill-rule: nonzero; opacity: 1;"  cx="0" cy="0" rx="1.5" ry="1" />
</g>
</g>
</g>
</svg>